<svg xmlns="http://www.w3.org/2000/svg" xml:space="preserve" viewBox="0 0 392.727 392.727" width="22pt" height="22pt"><path d="M21.851 258.004h39.111v-35.749H54.95c-6.012 0-10.925-4.848-10.925-10.925 0-6.012 4.848-10.925 10.925-10.925h282.634c6.012 0 10.925 4.848 10.925 10.925 0 6.012-4.848 10.925-10.925 10.925h-6.012v35.749h39.111V102.206H21.851v155.798z" style="fill:#fff"/><path d="M349.026 123.992H43.636v10.15h39.24c6.012 0 10.925 4.848 10.925 10.925 0 6.012-4.848 10.925-10.925 10.925h-39.24v13.188h21.463c6.012 0 10.925 4.848 10.925 10.925 0 6.012-4.848 10.925-10.925 10.925H43.636v45.188h17.325v-13.964h-6.012c-6.012 0-10.925-4.848-10.925-10.925 0-6.012 4.848-10.925 10.925-10.925h282.634c6.012 0 10.925 4.848 10.925 10.925 0 6.012-4.848 10.925-10.925 10.925h-6.012v13.964h17.325V123.992h.13z" style="fill:#ffc10d"/><path d="M82.812 222.19H309.85v148.622H82.812z" style="fill:#56ace0"/><path d="M82.812 21.915H309.85V80.42H82.812z" style="fill:#fff"/><path d="M134.917 265.503h-14.545c-6.012 0-10.925-4.848-10.925-10.925 0-6.012 4.848-10.925 10.925-10.925h14.545c6.012 0 10.925 4.848 10.925 10.925 0 6.077-4.913 10.925-10.925 10.925zM134.917 308.881h-14.545c-6.012 0-10.925-4.848-10.925-10.925s4.848-10.925 10.925-10.925h14.545c6.012 0 10.925 4.848 10.925 10.925s-4.913 10.925-10.925 10.925zM134.917 352.259h-14.545c-6.012 0-10.925-4.848-10.925-10.925s4.848-10.925 10.925-10.925h14.545c6.012 0 10.925 4.848 10.925 10.925-.064 6.076-4.913 10.925-10.925 10.925zM192.388 265.503h-14.545c-6.012 0-10.925-4.848-10.925-10.925 0-6.012 4.848-10.925 10.925-10.925h14.545c6.012 0 10.925 4.848 10.925 10.925 0 6.077-4.913 10.925-10.925 10.925zM215.855 308.881h-38.012c-6.012 0-10.925-4.848-10.925-10.925s4.848-10.925 10.925-10.925h38.012c6.012 0 10.925 4.848 10.925 10.925s-4.849 10.925-10.925 10.925zM192.388 352.259h-14.545c-6.012 0-10.925-4.848-10.925-10.925s4.848-10.925 10.925-10.925h14.545c6.012 0 10.925 4.848 10.925 10.925s-4.913 10.925-10.925 10.925zM272.291 265.503h-37.042c-6.012 0-10.925-4.848-10.925-10.925 0-6.012 4.848-10.925 10.925-10.925h37.042c6.012 0 10.925 4.848 10.925 10.925 0 6.077-4.913 10.925-10.925 10.925zM271.644 308.881h-14.545c-6.012 0-10.925-4.848-10.925-10.925s4.848-10.925 10.925-10.925h14.545c6.012 0 10.925 4.848 10.925 10.925s-4.848 10.925-10.925 10.925zM268.089 352.259h-32.776c-6.012 0-10.925-4.848-10.925-10.925s4.848-10.925 10.925-10.925h32.776c6.012 0 10.925 4.848 10.925 10.925s-4.848 10.925-10.925 10.925z" style="fill:#194f82"/><path d="M120.372 265.503h14.545c6.012 0 10.925-4.848 10.925-10.925a10.87 10.87 0 0 0-10.925-10.925h-14.545c-6.012 0-10.925 4.848-10.925 10.925-.001 6.077 4.913 10.925 10.925 10.925zM120.372 308.881h14.545c6.012 0 10.925-4.848 10.925-10.925 0-6.012-4.848-10.925-10.925-10.925h-14.545c-6.012 0-10.925 4.848-10.925 10.925s4.913 10.925 10.925 10.925zM120.372 352.259h14.545c6.012 0 10.925-4.848 10.925-10.925s-4.848-10.925-10.925-10.925h-14.545c-6.012 0-10.925 4.848-10.925 10.925s4.913 10.925 10.925 10.925zM177.842 265.503h14.545c6.012 0 10.925-4.848 10.925-10.925a10.87 10.87 0 0 0-10.925-10.925h-14.545c-6.012 0-10.925 4.848-10.925 10.925 0 6.077 4.913 10.925 10.925 10.925zM177.842 308.881h38.012c6.012 0 10.925-4.848 10.925-10.925 0-6.012-4.848-10.925-10.925-10.925h-38.012c-6.012 0-10.925 4.848-10.925 10.925.065 6.076 4.913 10.925 10.925 10.925zM177.842 352.259h14.545c6.012 0 10.925-4.848 10.925-10.925s-4.848-10.925-10.925-10.925h-14.545c-6.012 0-10.925 4.848-10.925 10.925.065 6.076 4.913 10.925 10.925 10.925zM235.378 265.503h37.042c6.012 0 10.925-4.848 10.925-10.925a10.87 10.87 0 0 0-10.925-10.925h-37.042c-6.012 0-10.925 4.848-10.925 10.925a10.87 10.87 0 0 0 10.925 10.925zM271.644 287.095h-14.545c-6.012 0-10.925 4.848-10.925 10.925 0 6.012 4.848 10.925 10.925 10.925h14.545c6.012 0 10.925-4.849 10.925-10.925.001-6.012-4.848-10.925-10.925-10.925zM268.089 330.473h-32.776c-6.012 0-10.925 4.848-10.925 10.925 0 6.012 4.848 10.925 10.925 10.925h32.776c6.012 0 10.925-4.848 10.925-10.925s-4.848-10.925-10.925-10.925zM313.277 150.109h14.545c6.012 0 10.925-4.848 10.925-10.925a10.87 10.87 0 0 0-10.925-10.925h-14.545c-6.012 0-10.925 4.848-10.925 10.925 0 6.012 4.848 10.925 10.925 10.925z" style="fill:#194f82"/><path d="M381.737 80.42h-50.101V10.99c0-6.012-4.848-10.925-10.925-10.925H71.952c-6.012 0-10.925 4.848-10.925 10.925v69.366H10.925C4.913 80.356 0 85.204 0 91.281v177.584c0 6.012 4.848 10.925 10.925 10.925h50.101v101.947c0 6.012 4.848 10.925 10.925 10.925h248.824c6.012 0 10.925-4.848 10.925-10.925V279.79h50.101c6.012 0 10.925-4.849 10.925-10.925V91.281c-.128-6.012-4.977-10.861-10.989-10.861zM82.812 222.19H309.85v148.622H82.812V222.19zm288 35.814h-39.111v-35.749h6.012c6.012 0 10.925-4.848 10.925-10.925 0-6.012-4.848-10.925-10.925-10.925H55.014c-6.012 0-10.925 4.848-10.925 10.925 0 6.012 4.848 10.925 10.925 10.925h6.012v35.749H21.851V102.206h348.962l-.001 155.798zm-288-236.089H309.85V80.42H82.812V21.915z" style="fill:#194f82"/></svg>